<svg width="123" height="123" viewBox="0 0 123 123" fill="none" xmlns="http://www.w3.org/2000/svg">
<circle cx="61.5" cy="61.5" r="59.5" fill="black" stroke="#DBE4EB" stroke-width="4"/>
<path d="M74.3653 80.4686C74.3653 81.8493 75.4846 82.9686 76.8653 82.9686C78.246 82.9686 79.3653 81.8493 79.3653 80.4686H74.3653ZM78.6331 26.0955C77.6568 25.1192 76.0739 25.1192 75.0976 26.0955L59.1877 42.0054C58.2113 42.9818 58.2113 44.5647 59.1877 45.541C60.164 46.5173 61.7469 46.5173 62.7232 45.541L76.8653 31.3988L91.0075 45.541C91.9838 46.5173 93.5667 46.5173 94.543 45.541C95.5193 44.5647 95.5193 42.9818 94.543 42.0054L78.6331 26.0955ZM79.3653 80.4686V27.8633H74.3653V80.4686H79.3653Z" fill="#DBE4EB"/>
<path d="M47.8964 40.9068C47.8964 39.5261 46.7772 38.4068 45.3964 38.4068C44.0157 38.4068 42.8964 39.5261 42.8964 40.9068H47.8964ZM43.6287 95.2799C44.605 96.2562 46.1879 96.2562 47.1642 95.2799L63.0741 79.37C64.0504 78.3937 64.0504 76.8108 63.0741 75.8345C62.0978 74.8581 60.5149 74.8581 59.5386 75.8345L45.3964 89.9766L31.2543 75.8345C30.278 74.8581 28.6951 74.8581 27.7188 75.8345C26.7425 76.8108 26.7425 78.3937 27.7188 79.37L43.6287 95.2799ZM42.8964 40.9068V93.5121H47.8964V40.9068H42.8964Z" fill="#DBE4EB"/>
</svg>
