<svg width="48" height="47" viewBox="0 0 48 47" fill="none" xmlns="http://www.w3.org/2000/svg">
<path opacity="0.8" d="M42.4148 0.027771H24.6859L18.1778 15.5127H30.5208C31.6428 15.5127 32.5405 15.937 33.4382 16.7855C34.1114 17.4219 34.5603 18.4825 34.5603 19.331C34.5603 19.9673 34.3358 20.3916 34.1114 20.8158L42.6394 0.664139C42.8636 0.452016 42.8636 0.239894 42.6394 0.239894C42.6394 0.027771 42.4148 0.027771 42.4148 0.027771Z" fill="#0066FF"/>
<path d="M47.5765 31.2095H30.5208C30.2963 31.2095 30.2963 30.9974 30.0719 30.9974C30.0719 30.7852 30.0719 30.7852 30.0719 30.5731L34.1115 21.0276V20.8154C34.3357 20.3912 34.5603 19.967 34.5603 19.3306C34.5603 17.2093 32.7649 15.5124 30.5208 15.5124H18.1778L5.16159 46.058C5.16159 46.2702 5.16159 46.4822 5.38599 46.4822C5.38599 46.6944 5.61042 46.6944 5.61042 46.6944H41.2927C41.5172 46.6944 41.5172 46.6944 41.7418 46.4822L47.8008 31.6337C48.0253 31.6337 48.0253 31.4216 47.8008 31.2095H47.5765Z" fill="#0066FF"/>
<path opacity="0.4" d="M6.73251 0.027771C6.50811 0.027771 6.28368 0.027771 6.28368 0.239894L0 15.0885C0 15.0885 0 15.3006 0 15.5127C0.224417 15.5127 0.224417 15.5127 0.448834 15.5127H18.1778L24.6859 0.027771H6.73251Z" fill="#0066FF"/>
</svg>
